{
  "accessors": [
    {
      "bufferView": 2,
      "componentType": 5126,
      "count": 2254,
      "max": [
        0.087459996342659,
        -1.6309469938278198,
        0.11988899856805801
      ],
      "min": [
        -0.08745799958705902,
        -1.9060159921646118,
        -0.13926999270915985
      ],
      "type": "VEC3"
    },
    {
      "bufferView": 2,
      "byteOffset": 27048,
      "componentType": 5126,
      "count": 2254,
      "max": [
        0.9997974634170532,
        0.9996349215507507,
        0.9842765927314758
      ],
      "min": [
        -0.9997974634170532,
        -0.9935608506202698,
        -0.9970463514328003
      ],
      "type": "VEC3"
    },
    {
      "bufferView": 1,
      "componentType": 5126,
      "count": 2254,
      "max": [
        1.0505160093307495,
        -1.0058540105819702
      ],
      "min": [
        0.007304999977350235,
        -1.9987939596176147
      ],
      "type": "VEC2"
    },
    {
      "bufferView": 0,
      "componentType": 5125,
      "count": 9222,
      "type": "SCALAR"
    },
    {
      "bufferView": 2,
      "byteOffset": 54096,
      "componentType": 5126,
      "count": 9085,
      "max": [
        0.5381579995155334,
        -0.00786300003528595,
        0.422544002532959
      ],
      "min": [
        -0.6794120073318481,
        -1.7202930450439453,
        -0.25930899381637573
      ],
      "type": "VEC3"
    },
    {
      "bufferView": 2,
      "byteOffset": 163116,
      "componentType": 5126,
      "count": 9085,
      "max": [
        0.9993157386779785,
        0.9999039173126221,
        1.0
      ],
      "min": [
        -0.9993104934692383,
        -0.9997543096542358,
        -0.9999300241470337
      ],
      "type": "VEC3"
    },
    {
      "bufferView": 1,
      "byteOffset": 18032,
      "componentType": 5126,
      "count": 9085,
      "max": [
        1.9948580265045166,
        -1.0056250095367432
      ],
      "min": [
        1.0038650035858154,
        -1.9949450492858887
      ],
      "type": "VEC2"
    },
    {
      "bufferView": 0,
      "byteOffset": 36888,
      "componentType": 5125,
      "count": 34182,
      "type": "SCALAR"
    }
  ],
  "asset": {
    "extras": {
      "author": "Zoiowo (https://sketchfab.com/Zoiowo)",
      "license": "CC-BY-4.0 (http://creativecommons.org/licenses/by/4.0/)",
      "source": "https://sketchfab.com/3d-models/valir-pale-flame-de094b97d8c842a2a2a6bb85ec667146",
      "title": "Valir - Pale Flame"
    },
    "generator": "Sketchfab-16.7.0",
    "version": "2.0"
  },
  "bufferViews": [
    {
      "buffer": 0,
      "byteLength": 173616,
      "name": "floatBufferViews",
      "target": 34963
    },
    {
      "buffer": 0,
      "byteLength": 90712,
      "byteOffset": 173616,
      "byteStride": 8,
      "name": "floatBufferViews",
      "target": 34962
    },
    {
      "buffer": 0,
      "byteLength": 272136,
      "byteOffset": 264328,
      "byteStride": 12,
      "name": "floatBufferViews",
      "target": 34962
    }
  ],
  "buffers": [
    {
      "byteLength": 536464,
      "uri": "scene.bin"
    }
  ],
  "images": [
    {
      "uri": "textures/firemagic_skin01_high_d1_baseColor.png"
    },
    {
      "uri": "textures/firemagic_skin01_high_d2_baseColor.png"
    }
  ],
  "materials": [
    {
      "doubleSided": true,
      "emissiveTexture": {
        "index": 0
      },
      "name": "firemagic_skin01_high_d1",
      "pbrMetallicRoughness": {
        "baseColorTexture": {
          "index": 0
        },
        "metallicFactor": 0.0,
        "roughnessFactor": 0.8938610725758361
      }
    },
    {
      "doubleSided": true,
      "emissiveTexture": {
        "index": 1
      },
      "name": "firemagic_skin01_high_d2",
      "pbrMetallicRoughness": {
        "baseColorTexture": {
          "index": 1
        },
        "metallicFactor": 0.0,
        "roughnessFactor": 0.8938610725758361
      }
    }
  ],
  "meshes": [
    {
      "name": "Object_0",
      "primitives": [
        {
          "attributes": {
            "NORMAL": 1,
            "POSITION": 0,
            "TEXCOORD_0": 2
          },
          "indices": 3,
          "material": 0,
          "mode": 4
        }
      ]
    },
    {
      "name": "Object_1",
      "primitives": [
        {
          "attributes": {
            "NORMAL": 5,
            "POSITION": 4,
            "TEXCOORD_0": 6
          },
          "indices": 7,
          "material": 1,
          "mode": 4
        }
      ]
    }
  ],
  "nodes": [
    {
      "children": [
        1
      ],
      "matrix": [
        1.0,
        0.0,
        0.0,
        0.0,
        0.0,
        -1.0,
        -4.440892098500626e-16,
        0.0,
        0.0,
        4.440892098500626e-16,
        -1.0,
        0.0,
        0.0,
        0.0,
        0.0,
        1.0
      ],
      "name": "Sketchfab_model"
    },
    {
      "children": [
        2,
        3
      ],
      "name": "hero_newfiremagic_skin01_high_add.obj.cleaner.materialmerger.gles"
    },
    {
      "mesh": 0,
      "name": "Object_2"
    },
    {
      "mesh": 1,
      "name": "Object_3"
    }
  ],
  "samplers": [
    {
      "magFilter": 9729,
      "minFilter": 9987,
      "wrapS": 10497,
      "wrapT": 10497
    }
  ],
  "scene": 0,
  "scenes": [
    {
      "name": "Sketchfab_Scene",
      "nodes": [
        0
      ]
    }
  ],
  "textures": [
    {
      "sampler": 0,
      "source": 0
    },
    {
      "sampler": 0,
      "source": 1
    }
  ]
}
